<svg width="1024" height="1024" version="1.1" xmlns="http://www.w3.org/2000/svg" desc="Created with imagetracer.js version 1.2.6" ><path fill="rgb(0,0,0)" stroke="rgb(0,0,0)" stroke-width="1" opacity="0" d="M 0 0 L 1024 0 L 1024 1024 L 0 1024 L 0 0 Z M 211 135 Q 196 137 188 145 Q 176 154 170 169 L 167 180 L 167 189 L 166 190 L 166 553 L 167 554 L 168 572 Q 171 585 179 594 Q 190 608 211 612 L 417 612 Q 431 609 441 601 Q 455 590 460 569 L 460 467 L 459 465 L 452 459 L 444 460 L 438 467 L 438 564 L 432 578 Q 426 586 415 589 L 213 589 L 202 584 Q 193 578 190 567 L 190 182 L 195 170 Q 202 160 216 157 L 249 157 L 249 168 L 255 181 Q 261 189 273 192 L 328 192 L 329 193 L 330 192 L 354 192 L 368 185 Q 380 177 379 157 L 413 157 L 418 158 L 427 163 L 435 173 L 439 187 L 439 305 L 442 310 L 447 312 L 457 311 L 462 304 L 462 182 L 459 170 L 452 157 Q 440 141 419 135 L 211 135 Z M 492 223 L 488 225 L 483 232 L 484 241 L 491 246 L 798 246 L 808 250 Q 817 256 819 269 L 819 521 L 489 521 L 487 522 L 481 530 L 482 539 L 489 544 L 819 544 L 819 545 L 819 576 L 486 576 L 484 577 Q 479 580 478 586 L 480 594 L 486 598 L 851 598 L 849 605 Q 843 614 831 616 L 461 616 L 457 618 L 452 626 Q 451 632 454 635 L 461 639 L 476 640 L 478 640 L 820 640 L 821 639 L 833 639 L 847 635 L 861 626 Q 874 614 879 593 L 878 582 L 871 576 L 842 576 L 842 267 L 840 257 L 832 242 Q 822 227 802 223 L 492 223 Z M 360 274 L 352 276 L 347 279 L 340 287 L 337 288 Q 333 293 331 302 Q 331 313 337 319 L 403 385 L 343 446 Q 344 448 342 447 L 334 456 L 331 465 L 332 474 L 342 487 L 349 492 L 357 495 Q 371 496 378 488 L 404 462 L 404 460 L 408 458 Q 407 455 410 456 L 416 449 Q 418 450 417 447 L 419 447 L 419 446 L 422 444 L 423 442 L 434 431 L 435 431 L 437 428 Q 439 429 438 427 L 442 424 L 451 432 L 457 439 Q 459 438 458 441 L 509 491 L 520 495 Q 532 495 538 489 Q 548 482 552 469 Q 552 456 545 451 L 480 386 L 528 336 Q 530 337 529 334 L 531 334 L 531 333 L 548 316 L 552 305 Q 552 295 546 291 L 544 288 Q 538 279 529 275 Q 516 273 511 278 L 442 348 L 436 341 L 433 340 L 431 337 L 427 333 L 421 327 L 417 324 Q 418 321 416 322 L 413 319 L 405 312 Q 406 309 404 310 L 401 307 L 396 303 Q 397 300 395 301 L 388 293 L 385 292 Q 386 289 383 290 L 383 288 L 381 288 L 380 285 Q 377 286 378 284 L 371 277 L 367 275 Q 361 277 360 274 Z M 646 670 Q 632 672 624 679 Q 614 686 608 698 L 602 718 L 603 744 Q 606 757 613 766 Q 620 775 631 780 L 648 785 L 669 784 Q 680 781 688 775 Q 701 766 705 748 L 705 745 L 680 745 L 677 753 Q 672 761 660 763 Q 645 764 639 757 L 632 749 L 628 735 Q 626 713 635 702 Q 640 694 652 692 L 664 693 L 670 696 Q 676 700 679 709 L 680 712 L 705 712 Q 705 697 697 689 Q 688 677 674 672 L 664 670 L 646 670 Z M 545 671 L 544 672 L 519 672 L 493 755 L 466 674 L 466 672 L 439 672 L 476 782 L 478 783 L 508 783 L 545 674 Q 547 672 545 671 Z M 236 672 L 236 783 L 286 783 L 303 779 L 313 773 L 325 760 L 331 746 L 333 736 Q 335 705 322 691 Q 312 677 294 673 L 289 672 L 236 672 Z M 350 672 Q 352 674 351 680 L 351 682 Q 353 687 350 689 L 351 690 L 351 781 Q 349 782 352 783 L 427 783 L 427 783 L 427 761 L 374 761 L 375 760 L 375 739 Q 373 737 376 736 L 377 737 L 421 737 L 421 716 L 375 716 L 375 696 L 374 695 L 376 693 L 426 693 L 426 673 L 426 672 L 350 672 Z M 560 672 L 560 783 L 561 783 L 585 783 L 585 673 L 585 672 L 560 672 Z M 722 672 L 722 783 L 799 783 L 799 761 L 747 761 L 747 737 L 792 737 L 792 716 L 747 716 L 747 693 L 796 693 Q 797 695 798 693 L 798 673 L 798 672 L 722 672 Z M 292 807 Q 275 810 265 819 Q 251 831 247 854 L 247 876 L 249 886 Q 253 897 260 906 Q 271 918 291 922 L 309 922 L 317 920 Q 327 916 335 909 Q 344 900 348 885 L 348 882 L 324 882 L 319 891 Q 314 898 303 900 Q 290 901 284 895 L 276 886 L 272 871 Q 271 851 278 841 Q 283 833 293 830 Q 306 828 313 833 Q 319 837 322 846 L 323 849 L 348 849 L 345 835 L 340 826 Q 333 816 322 811 L 307 807 L 292 807 Z M 616 807 L 603 810 L 589 818 Q 579 826 574 838 L 569 858 L 569 871 L 570 872 L 571 884 L 581 904 Q 592 918 613 922 L 632 922 L 643 919 L 655 912 Q 668 902 672 884 L 672 882 L 646 882 L 641 893 L 634 898 L 627 900 L 619 900 L 608 896 L 601 890 Q 597 883 595 874 Q 592 850 602 839 Q 607 832 616 830 Q 632 828 639 835 Q 644 840 646 848 L 647 849 L 671 849 L 668 835 L 662 825 Q 649 806 616 807 Z M 365 809 L 365 920 L 390 920 L 390 874 L 433 874 L 433 920 L 458 920 L 458 920 L 458 809 L 433 809 L 433 852 L 390 852 L 390 809 L 365 809 Z M 480 809 L 480 920 L 556 920 L 556 898 L 504 898 L 504 873 L 511 874 L 514 873 L 535 874 L 537 874 Q 541 875 543 873 L 549 874 L 549 853 L 504 853 L 504 831 L 555 831 L 555 810 L 555 809 L 480 809 Z M 688 809 L 688 920 L 689 920 L 712 920 L 712 886 L 720 877 Q 719 874 722 875 L 725 882 L 752 920 L 781 920 L 738 858 L 777 810 L 748 809 L 716 851 L 712 854 L 712 809 L 688 809 Z " /><path fill="rgb(0,0,0)" stroke="rgb(0,0,0)" stroke-width="1" opacity="0" d="M 279.5 157 L 347.5 157 L 351 159.5 L 352 165.5 L 350 169 L 347.5 170 L 280.5 170 L 276 166.5 L 275 161.5 L 277.5 158 L 279.5 157 Z " /><path fill="rgb(0,0,0)" stroke="rgb(0,0,0)" stroke-width="1" opacity="0" d="M 260 694 L 283.5 694 L 287.5 695 Q 296.8 698.2 302 705.5 Q 309.4 715.6 307 735.5 Q 304.9 748.4 296.5 755 L 289.5 759 L 281.5 761 L 260 761 L 260 694 Z " /><path fill="rgb(1,1,1)" stroke="rgb(1,1,1)" stroke-width="1" opacity="0.807843137254902" d="M 416.5 135 L 419 135.5 L 416.5 136 L 416.5 135 Z " /><path fill="rgb(1,1,1)" stroke="rgb(1,1,1)" stroke-width="1" opacity="0.807843137254902" d="M 440.5 145 L 441.5 147 L 440.5 145 Z " /><path fill="rgb(1,1,1)" stroke="rgb(1,1,1)" stroke-width="1" opacity="0.807843137254902" d="M 178.5 154 L 177.5 156 L 178.5 154 Z " /><path fill="rgb(1,1,1)" stroke="rgb(1,1,1)" stroke-width="1" opacity="0.807843137254902" d="M 351.5 166 L 350.5 168 L 351.5 166 Z " /><path fill="rgb(1,1,1)" stroke="rgb(1,1,1)" stroke-width="1" opacity="0.807843137254902" d="M 372.5 179 L 371.5 181 L 372.5 179 Z " /><path fill="rgb(1,1,1)" stroke="rgb(1,1,1)" stroke-width="1" opacity="0.807843137254902" d="M 255.5 180 L 256.5 182 L 255.5 180 Z " /><path fill="rgb(1,1,1)" stroke="rgb(1,1,1)" stroke-width="1" opacity="0.807843137254902" d="M 258.5 183 L 260.5 186 L 258.5 183 Z " /><path fill="rgb(1,1,1)" stroke="rgb(1,1,1)" stroke-width="1" opacity="0.807843137254902" d="M 368.5 183 L 367.5 185 L 368.5 183 Z " /><path fill="rgb(1,1,1)" stroke="rgb(1,1,1)" stroke-width="1" opacity="0.807843137254902" d="M 438.5 183 L 439 185.5 L 438 185.5 L 438.5 183 Z " /><path fill="rgb(1,1,1)" stroke="rgb(1,1,1)" stroke-width="1" opacity="0.807843137254902" d="M 364.5 186 L 363.5 188 L 364.5 186 Z " /><path fill="rgb(1,1,1)" stroke="rgb(1,1,1)" stroke-width="1" opacity="0.807843137254902" d="M 189.5 188 L 190 559.5 L 189 559.5 L 189.5 188 Z " /><path fill="rgb(1,1,1)" stroke="rgb(1,1,1)" stroke-width="1" opacity="0.807843137254902" d="M 166.5 189 L 167 552.5 L 166 552.5 L 166.5 189 Z " /><path fill="rgb(1,1,1)" stroke="rgb(1,1,1)" stroke-width="1" opacity="0.807843137254902" d="M 487.5 225 L 485.5 228 L 487.5 225 Z " /><path fill="rgb(1,1,1)" stroke="rgb(1,1,1)" stroke-width="1" opacity="0.807843137254902" d="M 819.5 230 L 820.5 232 L 819.5 230 Z " /><path fill="rgb(1,1,1)" stroke="rgb(1,1,1)" stroke-width="1" opacity="0.807843137254902" d="M 823.5 233 L 825.5 236 L 823.5 233 Z " /><path fill="rgb(1,1,1)" stroke="rgb(1,1,1)" stroke-width="1" opacity="0.807843137254902" d="M 829.5 239 L 831.5 242 L 829.5 239 Z " /><path fill="rgb(1,1,1)" stroke="rgb(1,1,1)" stroke-width="1" opacity="0.807843137254902" d="M 810.5 252 L 811.5 254 L 810.5 252 Z " /><path fill="rgb(1,1,1)" stroke="rgb(1,1,1)" stroke-width="1" opacity="0.807843137254902" d="M 814.5 257 L 815.5 259 L 814.5 257 Z " /><path fill="rgb(1,1,1)" stroke="rgb(1,1,1)" stroke-width="1" opacity="0.807843137254902" d="M 841.5 266 L 842 270.5 L 841 270.5 L 841.5 266 Z " /><path fill="rgb(1,1,1)" stroke="rgb(1,1,1)" stroke-width="1" opacity="0.807843137254902" d="M 457.5 309 L 456.5 311 L 457.5 309 Z " /><path fill="rgb(1,1,1)" stroke="rgb(1,1,1)" stroke-width="1" opacity="0.807843137254902" d="M 457.5 463 L 458.5 465 L 457.5 463 Z " /><path fill="rgb(1,1,1)" stroke="rgb(1,1,1)" stroke-width="1" opacity="0.807843137254902" d="M 819.5 575 L 818.5 577 L 816 576.5 L 819.5 575 Z " /><path fill="rgb(1,1,1)" stroke="rgb(1,1,1)" stroke-width="1" opacity="0.807843137254902" d="M 196.5 579 L 199.5 583 L 196.5 579 Z " /><path fill="rgb(1,1,1)" stroke="rgb(1,1,1)" stroke-width="1" opacity="0.807843137254902" d="M 478.5 585 L 479 587.5 L 478 587.5 L 478.5 585 Z " /><path fill="rgb(1,1,1)" stroke="rgb(1,1,1)" stroke-width="1" opacity="0.807843137254902" d="M 216.5 589 L 410 589.5 L 216.5 590 L 216.5 589 Z " /><path fill="rgb(1,1,1)" stroke="rgb(1,1,1)" stroke-width="1" opacity="0.807843137254902" d="M 878.5 590 L 879 592.5 L 878 592.5 L 878.5 590 Z " /><path fill="rgb(1,1,1)" stroke="rgb(1,1,1)" stroke-width="1" opacity="0.807843137254902" d="M 448.5 592 L 447.5 594 L 448.5 592 Z " /><path fill="rgb(1,1,1)" stroke="rgb(1,1,1)" stroke-width="1" opacity="0.807843137254902" d="M 179.5 593 L 186.5 601 L 179.5 593 Z " /><path fill="rgb(1,1,1)" stroke="rgb(1,1,1)" stroke-width="1" opacity="0.807843137254902" d="M 441.5 599 L 440.5 601 L 441.5 599 Z " /><path fill="rgb(1,1,1)" stroke="rgb(1,1,1)" stroke-width="1" opacity="0.807843137254902" d="M 189.5 602 L 190.5 604 L 189.5 602 Z " /><path fill="rgb(1,1,1)" stroke="rgb(1,1,1)" stroke-width="1" opacity="0.807843137254902" d="M 456.5 618 L 455.5 620 L 456.5 618 Z " /><path fill="rgb(1,1,1)" stroke="rgb(1,1,1)" stroke-width="1" opacity="0.807843137254902" d="M 865.5 620 L 860.5 626 L 865.5 620 Z " /><path fill="rgb(1,1,1)" stroke="rgb(1,1,1)" stroke-width="1" opacity="0.807843137254902" d="M 452.5 625 L 453 629.5 L 452 629.5 L 452.5 625 Z " /><path fill="rgb(1,1,1)" stroke="rgb(1,1,1)" stroke-width="1" opacity="0.807843137254902" d="M 857.5 627 L 856.5 629 L 857.5 627 Z " /><path fill="rgb(1,1,1)" stroke="rgb(1,1,1)" stroke-width="1" opacity="0.807843137254902" d="M 454.5 634 L 456.5 637 L 454.5 634 Z " /><path fill="rgb(1,1,1)" stroke="rgb(1,1,1)" stroke-width="1" opacity="0.807843137254902" d="M 472.5 639 L 476 639.5 L 472.5 640 L 472.5 639 Z " /><path fill="rgb(1,1,1)" stroke="rgb(1,1,1)" stroke-width="1" opacity="0.807843137254902" d="M 477.5 639 L 820 639.5 L 477.5 640 L 477.5 639 Z " /><path fill="rgb(1,1,1)" stroke="rgb(1,1,1)" stroke-width="1" opacity="0.807843137254902" d="M 645.5 670 L 648 670.5 L 645.5 671 L 645.5 670 Z " /><path fill="rgb(1,1,1)" stroke="rgb(1,1,1)" stroke-width="1" opacity="0.807843137254902" d="M 544.5 671 L 545.5 673 L 544.5 671 Z " /><path fill="rgb(1,1,1)" stroke="rgb(1,1,1)" stroke-width="1" opacity="0.807843137254902" d="M 584.5 672 L 585 783 L 560 782.5 L 584 782 L 584.5 672 Z " /><path fill="rgb(1,1,1)" stroke="rgb(1,1,1)" stroke-width="1" opacity="0.807843137254902" d="M 797.5 672 L 798 692.5 L 796 693.5 L 797 692.5 L 797.5 672 Z " /><path fill="rgb(1,1,1)" stroke="rgb(1,1,1)" stroke-width="1" opacity="0.807843137254902" d="M 623.5 679 L 622.5 681 L 623.5 679 Z " /><path fill="rgb(1,1,1)" stroke="rgb(1,1,1)" stroke-width="1" opacity="0.807843137254902" d="M 688.5 680 L 689.5 682 L 688.5 680 Z " /><path fill="rgb(1,1,1)" stroke="rgb(1,1,1)" stroke-width="1" opacity="0.807843137254902" d="M 313.5 682 L 315.5 685 L 313.5 682 Z " /><path fill="rgb(1,1,1)" stroke="rgb(1,1,1)" stroke-width="1" opacity="0.807843137254902" d="M 615.5 687 L 613.5 690 L 615.5 687 Z " /><path fill="rgb(1,1,1)" stroke="rgb(1,1,1)" stroke-width="1" opacity="0.807843137254902" d="M 695.5 687 L 696.5 689 L 695.5 687 Z " /><path fill="rgb(1,1,1)" stroke="rgb(1,1,1)" stroke-width="1" opacity="0.807843137254902" d="M 320.5 689 L 321.5 691 L 320.5 689 Z " /><path fill="rgb(1,1,1)" stroke="rgb(1,1,1)" stroke-width="1" opacity="0.807843137254902" d="M 374.5 695 L 375 715.5 L 374 715.5 L 374.5 695 Z " /><path fill="rgb(1,1,1)" stroke="rgb(1,1,1)" stroke-width="1" opacity="0.807843137254902" d="M 671.5 697 L 674.5 701 L 671.5 697 Z " /><path fill="rgb(1,1,1)" stroke="rgb(1,1,1)" stroke-width="1" opacity="0.807843137254902" d="M 634.5 702 L 633.5 704 L 634.5 702 Z " /><path fill="rgb(1,1,1)" stroke="rgb(1,1,1)" stroke-width="1" opacity="0.807843137254902" d="M 704.5 706 L 705 708.5 L 704 708.5 L 704.5 706 Z " /><path fill="rgb(1,1,1)" stroke="rgb(1,1,1)" stroke-width="1" opacity="0.807843137254902" d="M 332.5 717 L 333 719.5 L 332 719.5 L 332.5 717 Z " /><path fill="rgb(1,1,1)" stroke="rgb(1,1,1)" stroke-width="1" opacity="0.807843137254902" d="M 602.5 717 L 603 719.5 L 602 719.5 L 602.5 717 Z " /><path fill="rgb(1,1,1)" stroke="rgb(1,1,1)" stroke-width="1" opacity="0.807843137254902" d="M 307.5 723 L 308 730.5 L 307 730.5 L 307.5 723 Z " /><path fill="rgb(1,1,1)" stroke="rgb(1,1,1)" stroke-width="1" opacity="0.807843137254902" d="M 602.5 734 L 603 736.5 L 602 736.5 L 602.5 734 Z " /><path fill="rgb(1,1,1)" stroke="rgb(1,1,1)" stroke-width="1" opacity="0.807843137254902" d="M 376.5 736 L 421 736.5 L 376.5 737 L 376.5 736 Z " /><path fill="rgb(1,1,1)" stroke="rgb(1,1,1)" stroke-width="1" opacity="0.807843137254902" d="M 747.5 736 L 792 736.5 L 747.5 737 L 747.5 736 Z " /><path fill="rgb(1,1,1)" stroke="rgb(1,1,1)" stroke-width="1" opacity="0.807843137254902" d="M 374.5 738 L 375 759.5 L 374 759.5 L 374.5 738 Z " /><path fill="rgb(1,1,1)" stroke="rgb(1,1,1)" stroke-width="1" opacity="0.807843137254902" d="M 301.5 749 L 300.5 751 L 301.5 749 Z " /><path fill="rgb(1,1,1)" stroke="rgb(1,1,1)" stroke-width="1" opacity="0.807843137254902" d="M 674.5 755 L 673.5 757 L 674.5 755 Z " /><path fill="rgb(1,1,1)" stroke="rgb(1,1,1)" stroke-width="1" opacity="0.807843137254902" d="M 798.5 761 L 799 783 L 722 782.5 L 798 782 L 798.5 761 Z " /><path fill="rgb(1,1,1)" stroke="rgb(1,1,1)" stroke-width="1" opacity="0.807843137254902" d="M 322.5 762 L 321.5 764 L 322.5 762 Z " /><path fill="rgb(1,1,1)" stroke="rgb(1,1,1)" stroke-width="1" opacity="0.807843137254902" d="M 621.5 773 L 622.5 775 L 621.5 773 Z " /><path fill="rgb(1,1,1)" stroke="rgb(1,1,1)" stroke-width="1" opacity="0.807843137254902" d="M 350.5 781 L 351.5 782 L 427 782.5 L 351.5 783 L 350.5 781 Z " /><path fill="rgb(1,1,1)" stroke="rgb(1,1,1)" stroke-width="1" opacity="0.807843137254902" d="M 236.5 782 L 286 782.5 L 236.5 783 L 236.5 782 Z " /><path fill="rgb(1,1,1)" stroke="rgb(1,1,1)" stroke-width="1" opacity="0.807843137254902" d="M 477.5 782 L 508 782.5 L 477.5 783 L 477.5 782 Z " /><path fill="rgb(1,1,1)" stroke="rgb(1,1,1)" stroke-width="1" opacity="0.807843137254902" d="M 647.5 784 L 652 784.5 L 647.5 785 L 647.5 784 Z " /><path fill="rgb(1,1,1)" stroke="rgb(1,1,1)" stroke-width="1" opacity="0.807843137254902" d="M 659.5 784 L 663 784.5 L 659.5 785 L 659.5 784 Z " /><path fill="rgb(1,1,1)" stroke="rgb(1,1,1)" stroke-width="1" opacity="0.807843137254902" d="M 291.5 807 L 295 807.5 L 291.5 808 L 291.5 807 Z " /><path fill="rgb(1,1,1)" stroke="rgb(1,1,1)" stroke-width="1" opacity="0.807843137254902" d="M 304.5 807 L 307 807.5 L 304.5 808 L 304.5 807 Z " /><path fill="rgb(1,1,1)" stroke="rgb(1,1,1)" stroke-width="1" opacity="0.807843137254902" d="M 627.5 807 L 630 807.5 L 627.5 808 L 627.5 807 Z " /><path fill="rgb(1,1,1)" stroke="rgb(1,1,1)" stroke-width="1" opacity="0.807843137254902" d="M 365.5 809 L 390 809.5 L 365.5 810 L 365.5 809 Z " /><path fill="rgb(1,1,1)" stroke="rgb(1,1,1)" stroke-width="1" opacity="0.807843137254902" d="M 433.5 809 L 458 809.5 L 433.5 810 L 433.5 809 Z " /><path fill="rgb(1,1,1)" stroke="rgb(1,1,1)" stroke-width="1" opacity="0.807843137254902" d="M 554.5 809 L 555 830.5 L 554 830.5 L 554.5 809 Z " /><path fill="rgb(1,1,1)" stroke="rgb(1,1,1)" stroke-width="1" opacity="0.807843137254902" d="M 688.5 809 L 712 809.5 L 688.5 810 L 688.5 809 Z " /><path fill="rgb(1,1,1)" stroke="rgb(1,1,1)" stroke-width="1" opacity="0.807843137254902" d="M 752.5 809 L 761 809.5 L 752.5 810 L 752.5 809 Z " /><path fill="rgb(1,1,1)" stroke="rgb(1,1,1)" stroke-width="1" opacity="0.807843137254902" d="M 775.5 811 L 774.5 813 L 775.5 811 Z " /><path fill="rgb(1,1,1)" stroke="rgb(1,1,1)" stroke-width="1" opacity="0.807843137254902" d="M 743.5 814 L 742.5 816 L 743.5 814 Z " /><path fill="rgb(1,1,1)" stroke="rgb(1,1,1)" stroke-width="1" opacity="0.807843137254902" d="M 592.5 815 L 591.5 817 L 592.5 815 Z " /><path fill="rgb(1,1,1)" stroke="rgb(1,1,1)" stroke-width="1" opacity="0.807843137254902" d="M 330.5 816 L 331.5 818 L 330.5 816 Z " /><path fill="rgb(1,1,1)" stroke="rgb(1,1,1)" stroke-width="1" opacity="0.807843137254902" d="M 654.5 817 L 656.5 820 L 654.5 817 Z " /><path fill="rgb(1,1,1)" stroke="rgb(1,1,1)" stroke-width="1" opacity="0.807843137254902" d="M 770.5 817 L 769.5 819 L 770.5 817 Z " /><path fill="rgb(1,1,1)" stroke="rgb(1,1,1)" stroke-width="1" opacity="0.807843137254902" d="M 588.5 818 L 582.5 825 L 588.5 818 Z " /><path fill="rgb(1,1,1)" stroke="rgb(1,1,1)" stroke-width="1" opacity="0.807843137254902" d="M 264.5 819 L 260.5 824 L 264.5 819 Z " /><path fill="rgb(1,1,1)" stroke="rgb(1,1,1)" stroke-width="1" opacity="0.807843137254902" d="M 659.5 822 L 661.5 825 L 659.5 822 Z " /><path fill="rgb(1,1,1)" stroke="rgb(1,1,1)" stroke-width="1" opacity="0.807843137254902" d="M 766.5 822 L 765.5 824 L 766.5 822 Z " /><path fill="rgb(1,1,1)" stroke="rgb(1,1,1)" stroke-width="1" opacity="0.807843137254902" d="M 337.5 823 L 339.5 826 L 337.5 823 Z " /><path fill="rgb(1,1,1)" stroke="rgb(1,1,1)" stroke-width="1" opacity="0.807843137254902" d="M 736.5 823 L 735.5 825 L 736.5 823 Z " /><path fill="rgb(1,1,1)" stroke="rgb(1,1,1)" stroke-width="1" opacity="0.807843137254902" d="M 733.5 827 L 732.5 829 L 733.5 827 Z " /><path fill="rgb(1,1,1)" stroke="rgb(1,1,1)" stroke-width="1" opacity="0.807843137254902" d="M 762.5 827 L 761.5 829 L 762.5 827 Z " /><path fill="rgb(1,1,1)" stroke="rgb(1,1,1)" stroke-width="1" opacity="0.807843137254902" d="M 295.5 829 L 303 829.5 L 295.5 830 L 295.5 829 Z " /><path fill="rgb(1,1,1)" stroke="rgb(1,1,1)" stroke-width="1" opacity="0.807843137254902" d="M 618.5 829 L 625 829.5 L 618.5 830 L 618.5 829 Z " /><path fill="rgb(1,1,1)" stroke="rgb(1,1,1)" stroke-width="1" opacity="0.807843137254902" d="M 730.5 831 L 729.5 833 L 730.5 831 Z " /><path fill="rgb(1,1,1)" stroke="rgb(1,1,1)" stroke-width="1" opacity="0.807843137254902" d="M 758.5 832 L 757.5 834 L 758.5 832 Z " /><path fill="rgb(1,1,1)" stroke="rgb(1,1,1)" stroke-width="1" opacity="0.807843137254902" d="M 283.5 834 L 279.5 839 L 283.5 834 Z " /><path fill="rgb(1,1,1)" stroke="rgb(1,1,1)" stroke-width="1" opacity="0.807843137254902" d="M 314.5 834 L 317.5 838 L 314.5 834 Z " /><path fill="rgb(1,1,1)" stroke="rgb(1,1,1)" stroke-width="1" opacity="0.807843137254902" d="M 640.5 837 L 641.5 839 L 640.5 837 Z " /><path fill="rgb(1,1,1)" stroke="rgb(1,1,1)" stroke-width="1" opacity="0.807843137254902" d="M 754.5 837 L 753.5 839 L 754.5 837 Z " /><path fill="rgb(1,1,1)" stroke="rgb(1,1,1)" stroke-width="1" opacity="0.807843137254902" d="M 723.5 840 L 722.5 842 L 723.5 840 Z " /><path fill="rgb(1,1,1)" stroke="rgb(1,1,1)" stroke-width="1" opacity="0.807843137254902" d="M 720.5 844 L 719.5 846 L 720.5 844 Z " /><path fill="rgb(1,1,1)" stroke="rgb(1,1,1)" stroke-width="1" opacity="0.807843137254902" d="M 347.5 846 L 348 848.5 L 347 848.5 L 347.5 846 Z " /><path fill="rgb(1,1,1)" stroke="rgb(1,1,1)" stroke-width="1" opacity="0.807843137254902" d="M 746.5 847 L 744.5 850 L 746.5 847 Z " /><path fill="rgb(1,1,1)" stroke="rgb(1,1,1)" stroke-width="1" opacity="0.807843137254902" d="M 433.5 851 L 432.5 853 L 390 852.5 L 432.5 852 L 433.5 851 Z " /><path fill="rgb(1,1,1)" stroke="rgb(1,1,1)" stroke-width="1" opacity="0.807843137254902" d="M 247.5 853 L 248 855.5 L 247 855.5 L 247.5 853 Z " /><path fill="rgb(1,1,1)" stroke="rgb(1,1,1)" stroke-width="1" opacity="0.807843137254902" d="M 711.5 853 L 714 853.5 L 711 855 L 711.5 853 Z " /><path fill="rgb(1,1,1)" stroke="rgb(1,1,1)" stroke-width="1" opacity="0.807843137254902" d="M 569.5 857 L 570 870.5 L 569 870.5 L 569.5 857 Z " /><path fill="rgb(1,1,1)" stroke="rgb(1,1,1)" stroke-width="1" opacity="0.807843137254902" d="M 738.5 858 L 739.5 860 L 738.5 858 Z " /><path fill="rgb(1,1,1)" stroke="rgb(1,1,1)" stroke-width="1" opacity="0.807843137254902" d="M 594.5 861 L 595 865.5 L 594 865.5 L 594.5 861 Z " /><path fill="rgb(1,1,1)" stroke="rgb(1,1,1)" stroke-width="1" opacity="0.807843137254902" d="M 743.5 865 L 744.5 867 L 743.5 865 Z " /><path fill="rgb(1,1,1)" stroke="rgb(1,1,1)" stroke-width="1" opacity="0.807843137254902" d="M 272.5 871 L 273 873.5 L 272 873.5 L 272.5 871 Z " /><path fill="rgb(1,1,1)" stroke="rgb(1,1,1)" stroke-width="1" opacity="0.807843137254902" d="M 247.5 873 L 248 875.5 L 247 875.5 L 247.5 873 Z " /><path fill="rgb(1,1,1)" stroke="rgb(1,1,1)" stroke-width="1" opacity="0.807843137254902" d="M 508.5 873 L 511 873.5 L 508.5 874 L 508.5 873 Z " /><path fill="rgb(1,1,1)" stroke="rgb(1,1,1)" stroke-width="1" opacity="0.807843137254902" d="M 528.5 873 L 535 873.5 L 528.5 874 L 528.5 873 Z " /><path fill="rgb(1,1,1)" stroke="rgb(1,1,1)" stroke-width="1" opacity="0.807843137254902" d="M 536.5 873 L 542 873.5 L 536.5 874 L 536.5 873 Z " /><path fill="rgb(1,1,1)" stroke="rgb(1,1,1)" stroke-width="1" opacity="0.807843137254902" d="M 719.5 876 L 718.5 878 L 719.5 876 Z " /><path fill="rgb(1,1,1)" stroke="rgb(1,1,1)" stroke-width="1" opacity="0.807843137254902" d="M 725.5 881 L 726.5 883 L 725.5 881 Z " /><path fill="rgb(1,1,1)" stroke="rgb(1,1,1)" stroke-width="1" opacity="0.807843137254902" d="M 336.5 882 L 340 882.5 L 336.5 883 L 336.5 882 Z " /><path fill="rgb(1,1,1)" stroke="rgb(1,1,1)" stroke-width="1" opacity="0.807843137254902" d="M 658.5 882 L 669 882.5 L 658.5 883 L 658.5 882 Z " /><path fill="rgb(1,1,1)" stroke="rgb(1,1,1)" stroke-width="1" opacity="0.807843137254902" d="M 714.5 882 L 712.5 885 L 714.5 882 Z " /><path fill="rgb(1,1,1)" stroke="rgb(1,1,1)" stroke-width="1" opacity="0.807843137254902" d="M 278.5 889 L 279.5 891 L 278.5 889 Z " /><path fill="rgb(1,1,1)" stroke="rgb(1,1,1)" stroke-width="1" opacity="0.807843137254902" d="M 603.5 892 L 604.5 894 L 603.5 892 Z " /><path fill="rgb(1,1,1)" stroke="rgb(1,1,1)" stroke-width="1" opacity="0.807843137254902" d="M 639.5 893 L 637.5 896 L 639.5 893 Z " /><path fill="rgb(1,1,1)" stroke="rgb(1,1,1)" stroke-width="1" opacity="0.807843137254902" d="M 767.5 900 L 768.5 902 L 767.5 900 Z " /><path fill="rgb(1,1,1)" stroke="rgb(1,1,1)" stroke-width="1" opacity="0.807843137254902" d="M 581.5 903 L 582.5 905 L 581.5 903 Z " /><path fill="rgb(1,1,1)" stroke="rgb(1,1,1)" stroke-width="1" opacity="0.807843137254902" d="M 740.5 903 L 741.5 905 L 740.5 903 Z " /><path fill="rgb(1,1,1)" stroke="rgb(1,1,1)" stroke-width="1" opacity="0.807843137254902" d="M 769.5 903 L 770.5 905 L 769.5 903 Z " /><path fill="rgb(1,1,1)" stroke="rgb(1,1,1)" stroke-width="1" opacity="0.807843137254902" d="M 260.5 905 L 263.5 909 L 260.5 905 Z " /><path fill="rgb(1,1,1)" stroke="rgb(1,1,1)" stroke-width="1" opacity="0.807843137254902" d="M 335.5 907 L 334.5 909 L 335.5 907 Z " /><path fill="rgb(1,1,1)" stroke="rgb(1,1,1)" stroke-width="1" opacity="0.807843137254902" d="M 586.5 908 L 589.5 912 L 586.5 908 Z " /><path fill="rgb(1,1,1)" stroke="rgb(1,1,1)" stroke-width="1" opacity="0.807843137254902" d="M 746.5 912 L 747.5 914 L 746.5 912 Z " /><path fill="rgb(1,1,1)" stroke="rgb(1,1,1)" stroke-width="1" opacity="0.807843137254902" d="M 750.5 918 L 751.5 919 L 779 919.5 L 751.5 920 L 750.5 918 Z " /><path fill="rgb(1,1,1)" stroke="rgb(1,1,1)" stroke-width="1" opacity="0.807843137254902" d="M 365.5 919 L 389 919.5 L 365.5 920 L 365.5 919 Z " /><path fill="rgb(1,1,1)" stroke="rgb(1,1,1)" stroke-width="1" opacity="0.807843137254902" d="M 433.5 919 L 457 919.5 L 433.5 920 L 433.5 919 Z " /><path fill="rgb(1,1,1)" stroke="rgb(1,1,1)" stroke-width="1" opacity="0.807843137254902" d="M 480.5 919 L 554 919.5 L 480.5 920 L 480.5 919 Z " /><path fill="rgb(1,1,1)" stroke="rgb(1,1,1)" stroke-width="1" opacity="0.807843137254902" d="M 688.5 919 L 712 919.5 L 688.5 920 L 688.5 919 Z " /><path fill="rgb(1,1,1)" stroke="rgb(1,1,1)" stroke-width="1" opacity="0.807843137254902" d="M 612.5 921 L 615 921.5 L 612.5 922 L 612.5 921 Z " /><path fill="rgb(233,70,65)" stroke="rgb(233,70,65)" stroke-width="1" opacity="0.9764705882352941" d="M 359.5 274 Q 361 276.5 366.5 275 L 370.5 277 L 378 283.5 Q 377.3 285.8 379.5 285 L 381 288 L 383 288 L 383 290 Q 385.7 288.9 385 291.5 L 388 293 L 394.5 301 Q 396.8 300.3 396 302.5 L 401 306.5 L 403.5 310 Q 405.8 309.3 405 311.5 L 413 318.5 L 415.5 322 Q 417.8 321.3 417 323.5 L 421 326.5 L 426.5 333 L 431 336.5 L 433 339.5 L 436 341 L 441.5 348 L 510.5 278 Q 516.4 273.4 528.5 275 Q 538.2 279.3 544 287.5 L 546 290.5 Q 551.6 294.9 552 304.5 L 548 315.5 L 531 332.5 L 531 334 L 529 334 Q 530.1 336.7 527.5 336 L 480 385.5 L 545 450.5 Q 551.8 456.2 552 468.5 Q 548 482 537.5 489 Q 531.6 495.1 519.5 495 L 508.5 491 L 458 440.5 Q 458.8 438.3 456.5 439 L 451 432 L 448.5 431 L 447 431.5 Q 449.7 429.8 445.5 428 L 444 428.5 L 445 427.5 L 441.5 424 L 438 426.5 Q 438.8 428.8 436.5 428 L 435 431 L 433.5 431 L 423 441.5 L 421.5 444 L 419 445.5 L 419 447 L 417 447 Q 418.1 449.7 415.5 449 L 409.5 456 Q 407.3 455.3 408 457.5 L 404 460 L 404 461.5 L 377.5 488 Q 373.2 493.2 365 494.5 L 365.5 496 L 364.5 495 L 352.5 494 L 342 487 L 332 473.5 L 331 464.5 L 334 455.5 L 341.5 447 Q 343.8 447.8 343 445.5 L 403 384.5 L 355.5 337 L 354 337.5 L 355 336.5 L 337 318.5 L 333.5 313 L 332 313.5 L 333 311.5 L 331 301.5 Q 332.6 292.9 337 288 L 340 286.5 L 346.5 279 L 351.5 276 L 359.5 274 Z " /><path fill="rgb(233,70,65)" stroke="rgb(233,70,65)" stroke-width="1" opacity="0.9764705882352941" d="M 388.5 374 L 389.5 376 L 388.5 374 Z " /><path fill="rgb(0,0,0)" stroke="rgb(0,0,0)" stroke-width="1" opacity="0.996078431372549" d="M 212.5 135 L 415.5 135 Q 438.8 139.7 451 155.5 L 459 170.5 L 462 183.5 L 462 302.5 L 459 309 Q 455.8 312 448.5 312 L 441 307.5 L 439 303.5 L 439 183.5 L 437 176.5 L 430 165 Q 424.1 159.7 414.5 157 L 379.5 157 Q 376.7 158.3 379 159.5 Q 378.4 175.4 369.5 183 Q 362.7 189.2 352.5 192 L 274.5 192 Q 263.6 188.9 257 183 L 251 172.5 L 249 165.5 L 249 159.5 L 250 157 L 213.5 157 Q 200.2 160.2 194 170.5 L 190 180.5 Q 191.8 186.7 189 188.5 L 189 559.5 L 192 573.5 L 199.5 583 Q 206.1 588.4 216.5 590 L 409.5 590 L 422.5 586 L 433 576.5 L 438 565.5 L 438 468.5 L 442.5 461 L 450.5 459 L 457 462.5 L 460 467.5 L 460 566.5 Q 456.1 587.6 442.5 599 Q 432 609 414.5 612 L 212.5 612 Q 188.5 607.5 177 590.5 L 170 577.5 L 167 564.5 L 167 181.5 Q 171 158 186.5 146 L 200.5 138 L 212.5 135 Z M 279 157 L 276 158 L 275 161 Q 274 166 276 168 L 280 170 L 349 170 L 352 167 Q 353 160 351 158 L 349 157 L 279 157 Z " /><path fill="rgb(0,0,0)" stroke="rgb(0,0,0)" stroke-width="1" opacity="0.996078431372549" d="M 493.5 223 L 799.5 223 Q 818.7 226.3 829 238.5 Q 836.2 246.3 840 257.5 L 841 270.5 L 842 271.5 L 842 576 L 869.5 576 L 877 580.5 Q 879.6 583.4 879 589.5 L 877 599.5 L 872 611.5 L 858.5 627 L 845.5 635 L 830.5 639 L 461.5 639 L 454 633.5 Q 451.7 630.3 453 623.5 L 458.5 617 L 461.5 616 L 832.5 616 L 847 608 L 852 598 L 486.5 598 L 481 594.5 Q 477.8 591.2 479 583.5 L 482.5 578 L 486.5 576 L 686.5 576 L 688.5 576 L 815.5 576 L 818.5 577 Q 821.3 575.8 819 574.5 L 819 544.5 L 818.5 544 L 490.5 544 L 483 539.5 Q 480.4 536.6 481 530.5 L 485.5 523 L 489.5 521 L 819 521 L 819 267.5 Q 817.3 257.3 810.5 252 L 799.5 246 L 491.5 246 L 485 241.5 L 483 233.5 L 484 229.5 L 489.5 224 L 493.5 223 Z " /><path fill="rgb(0,0,0)" stroke="rgb(0,0,0)" stroke-width="1" opacity="0.996078431372549" d="M 648.5 670 L 661.5 670 L 672.5 672 Q 686.3 676.7 695 686.5 L 703 700.5 L 705 712 L 680.5 712 L 679 710.5 Q 677.7 701.3 671.5 697 Q 664.7 690.3 649.5 692 Q 638.6 695.1 633 703.5 L 628 717.5 L 628 736.5 Q 630.4 750.6 639.5 758 Q 646.3 764.7 661.5 763 Q 670.1 761.1 675 755.5 L 680 747.5 L 680 745 L 704.5 745 L 705 746.5 Q 701.1 764.6 688.5 774 L 671.5 783 L 652.5 785 L 633.5 781 Q 621.7 775.8 614 766.5 L 604 746.5 L 603 734.5 L 602 733.5 L 602 720.5 L 607 700.5 Q 612.2 688.7 621.5 681 L 632.5 674 L 648.5 670 Z " /><path fill="rgb(0,0,0)" stroke="rgb(0,0,0)" stroke-width="1" opacity="0.996078431372549" d="M 236 672 L 286.5 672 Q 287.7 674.2 292.5 673 Q 310.1 676.9 320 688.5 Q 334.2 703.3 333 733.5 L 331 744.5 L 327 755.5 Q 321.8 765.3 313.5 772 Q 304.5 779.5 290.5 782 L 236 782 L 236 672 Z M 260 694 L 260 761 L 284 761 L 296 756 Q 302 752 305 744 L 308 731 L 307 717 L 300 702 L 286 694 L 260 694 Z " /><path fill="rgb(0,0,0)" stroke="rgb(0,0,0)" stroke-width="1" opacity="0.996078431372549" d="M 351 672 L 425.5 672 L 426 672.5 L 426 693 L 374 693 L 374 716 L 421 716 L 421 736 L 374 736 L 374 760.5 Q 375.3 763.3 376.5 761 L 425.5 761 L 427 762.5 L 427 781.5 L 426.5 782 L 351 782 L 351 672 Z " /><path fill="rgb(0,0,0)" stroke="rgb(0,0,0)" stroke-width="1" opacity="0.996078431372549" d="M 439 672 L 465.5 672 L 466 674.5 L 492.5 756 L 518 678.5 L 519 672 L 544.5 672 L 545 673.5 L 508 782 L 476.5 782 L 476 779.5 L 439 672 Z " /><path fill="rgb(0,0,0)" stroke="rgb(0,0,0)" stroke-width="1" opacity="0.996078431372549" d="M 560 672 L 583.5 672 L 584 672.5 L 584 782 L 560.5 782 L 560 781.5 L 560 672 Z " /><path fill="rgb(0,0,0)" stroke="rgb(0,0,0)" stroke-width="1" opacity="0.996078431372549" d="M 722 672 L 796.5 672 L 797 672.5 L 797 693 L 747 693 L 747 716 L 792 716 L 792 736 L 747 736 L 747 761 L 798 761 L 798 782 L 722 782 L 722 672 Z " /><path fill="rgb(0,0,0)" stroke="rgb(0,0,0)" stroke-width="1" opacity="0.996078431372549" d="M 295.5 807 Q 324 807 337 822.5 Q 346.7 831.6 347 849 L 323.5 849 L 323 847.5 Q 320.5 839 314.5 834 Q 308 828.5 295.5 829 Q 284.5 831 279 838.5 L 273 850.5 L 272 855.5 L 272 873.5 Q 273.5 883 278 889.5 L 284.5 896 Q 290.8 901.7 304.5 900 Q 314.8 897.3 320 889.5 L 323 882 L 339.5 883 L 341.5 882 L 345.5 882 L 348 883.5 Q 343.5 902 330.5 912 Q 317.9 923.4 292.5 922 Q 268.8 917.7 257 901.5 Q 250.6 892.4 248 879.5 L 247 856.5 L 249 845.5 L 256 829.5 L 267.5 817 L 280.5 810 L 295.5 807 Z " /><path fill="rgb(0,0,0)" stroke="rgb(0,0,0)" stroke-width="1" opacity="0.996078431372549" d="M 617.5 807 Q 645.8 806.7 659 821.5 L 668 835.5 L 671 847.5 L 669.5 849 L 646 849 Q 644.9 838.9 637.5 834 Q 631 828.5 618.5 829 Q 606.5 831 601 839.5 L 596 849.5 L 594 865.5 L 597 882.5 L 604.5 894 L 616.5 900 L 628.5 900 Q 637.4 897.9 642 891.5 L 647.5 882 Q 653.8 880.3 655.5 883 L 657.5 882 L 658.5 883 L 668.5 883 L 671 882 Q 668.4 901.1 655.5 911 Q 642.3 923.3 615.5 922 L 605.5 920 L 594.5 915 L 583 905.5 Q 574.3 896.2 571 881.5 L 570 876.5 L 570 852.5 Q 574.5 829 590.5 817 L 603.5 810 L 617.5 807 Z " /><path fill="rgb(0,0,0)" stroke="rgb(0,0,0)" stroke-width="1" opacity="0.996078431372549" d="M 480 809 L 553.5 809 L 554 809.5 L 554 831 L 504 831 L 504 853 L 549 853 L 549 873 L 504 873 L 504 898 L 556 898 L 556 920 L 553.5 919 L 480 919 L 480 809 Z " /><path fill="rgb(0,0,0)" stroke="rgb(0,0,0)" stroke-width="1" opacity="0.996078431372549" d="M 749.5 809 L 760.5 810 L 762.5 810 L 764.5 809 L 776 809 L 774 813.5 L 740 856 Q 737 854.8 738 858.5 L 780 919.5 L 778.5 919 L 751.5 919 L 750 917.5 L 721.5 874 L 712 884.5 L 712 919 L 688.5 919 L 688 918.5 L 688 810 L 712 810 L 712 852.5 L 711 855 L 714 853.5 L 744 814.5 L 746 810 L 749.5 809 Z " /><path fill="rgb(0,0,0)" stroke="rgb(0,0,0)" stroke-width="1" opacity="0.996078431372549" d="M 365 810 L 390 810 L 390 853 L 432.5 853 Q 435.3 851.8 433 850.5 L 433 810 L 458 810 L 457.5 920 L 456.5 919 L 433 919 L 433 874 L 390 874 L 389.5 920 L 388.5 919 L 365 919 L 365 810 Z " /></svg>